<mxfile host="app.diagrams.net" modified="2023-08-19T01:11:57.521Z" agent="Mozilla/5.0 (Windows NT 10.0; Win64; x64) AppleWebKit/537.36 (KHTML, like Gecko) Chrome/116.0.0.0 Safari/537.36" version="21.6.8" etag="p4CxiKhFtzSFY0ot7VBL" type="github">
  <diagram name="Page-1" id="ANZBaCTvebkIyvTsZ5IR">
    <mxGraphModel>
      <root>
        <mxCell id="0" />
        <mxCell id="1" parent="0" />
      </root>
    </mxGraphModel>
  </diagram>
</mxfile>
